<svg width="332" height="37" viewBox="0 0 332 37" fill="none" xmlns="http://www.w3.org/2000/svg">
<path d="M32.3523 1.09091V36H25.1932L11.3011 15.8523H11.0795V36H2.64205V1.09091H9.90341L23.642 21.2045H23.9318V1.09091H32.3523ZM48.4952 1.09091V36H40.0577V1.09091H48.4952ZM56.192 36V1.09091H80.0216V7.94318H64.6295V15.1023H78.5045V21.9716H64.6295V36H56.192ZM85.5281 7.94318V1.09091H115.034V7.94318H104.449V36H96.1304V7.94318H85.5281ZM119.816 1.09091H129.242L136.623 15.6989H136.93L144.31 1.09091H153.736L140.969 24.3409V36H132.583V24.3409L119.816 1.09091ZM189.384 1.09091V36H182.224L168.332 15.8523H168.111V36H159.673V1.09091H166.935L180.673 21.2045H180.963V1.09091H189.384ZM230.038 18.5455C230.038 22.3864 229.299 25.642 227.822 28.3125C226.345 30.983 224.345 33.0114 221.822 34.3977C219.311 35.7841 216.492 36.4773 213.367 36.4773C210.231 36.4773 207.407 35.7784 204.896 34.3807C202.384 32.983 200.39 30.9545 198.913 28.2955C197.447 25.625 196.714 22.375 196.714 18.5455C196.714 14.7045 197.447 11.4489 198.913 8.77841C200.39 6.10795 202.384 4.07955 204.896 2.69318C207.407 1.30682 210.231 0.613635 213.367 0.613635C216.492 0.613635 219.311 1.30682 221.822 2.69318C224.345 4.07955 226.345 6.10795 227.822 8.77841C229.299 11.4489 230.038 14.7045 230.038 18.5455ZM221.413 18.5455C221.413 16.2727 221.089 14.3523 220.441 12.7841C219.805 11.2159 218.884 10.0284 217.68 9.22159C216.487 8.41477 215.049 8.01136 213.367 8.01136C211.697 8.01136 210.259 8.41477 209.055 9.22159C207.85 10.0284 206.924 11.2159 206.276 12.7841C205.64 14.3523 205.322 16.2727 205.322 18.5455C205.322 20.8182 205.64 22.7386 206.276 24.3068C206.924 25.875 207.85 27.0625 209.055 27.8693C210.259 28.6761 211.697 29.0795 213.367 29.0795C215.049 29.0795 216.487 28.6761 217.68 27.8693C218.884 27.0625 219.805 25.875 220.441 24.3068C221.089 22.7386 221.413 20.8182 221.413 18.5455ZM234.628 7.94318V1.09091H264.134V7.94318H253.549V36H245.23V7.94318H234.628ZM270.655 36V1.09091H294.995V7.94318H279.092V15.1023H293.751V21.9716H279.092V29.1477H294.995V36H270.655ZM321.549 11.5568C321.435 10.3068 320.93 9.33523 320.032 8.64205C319.145 7.9375 317.878 7.58523 316.231 7.58523C315.14 7.58523 314.231 7.72727 313.503 8.01136C312.776 8.29545 312.231 8.6875 311.867 9.1875C311.503 9.67614 311.316 10.2386 311.305 10.875C311.282 11.3977 311.384 11.858 311.611 12.2557C311.85 12.6534 312.191 13.0057 312.634 13.3125C313.089 13.608 313.634 13.8693 314.27 14.0966C314.907 14.3239 315.623 14.5227 316.418 14.6932L319.418 15.375C321.145 15.75 322.668 16.25 323.986 16.875C325.316 17.5 326.43 18.2443 327.327 19.108C328.236 19.9716 328.924 20.9659 329.39 22.0909C329.856 23.2159 330.094 24.4773 330.106 25.875C330.094 28.0795 329.538 29.9716 328.435 31.5511C327.333 33.1307 325.748 34.3409 323.68 35.1818C321.623 36.0227 319.14 36.4432 316.231 36.4432C313.31 36.4432 310.765 36.0057 308.594 35.1307C306.424 34.2557 304.736 32.9261 303.532 31.142C302.327 29.358 301.708 27.1023 301.674 24.375H309.753C309.822 25.5 310.123 26.4375 310.657 27.1875C311.191 27.9375 311.924 28.5057 312.856 28.892C313.799 29.2784 314.89 29.4716 316.128 29.4716C317.265 29.4716 318.231 29.3182 319.026 29.0114C319.833 28.7045 320.452 28.2784 320.884 27.733C321.316 27.1875 321.538 26.5625 321.549 25.858C321.538 25.1989 321.333 24.6364 320.935 24.1705C320.538 23.6932 319.924 23.2841 319.094 22.9432C318.276 22.5909 317.231 22.267 315.958 21.9716L312.31 21.1193C309.288 20.4261 306.907 19.3068 305.168 17.7614C303.43 16.2045 302.566 14.1023 302.577 11.4545C302.566 9.29545 303.145 7.40341 304.316 5.77841C305.486 4.15341 307.106 2.88636 309.174 1.97727C311.242 1.06818 313.6 0.613635 316.248 0.613635C318.952 0.613635 321.299 1.07386 323.288 1.99432C325.288 2.90341 326.839 4.18182 327.941 5.82955C329.043 7.47727 329.606 9.38636 329.628 11.5568H321.549Z" fill="#9E0C39"/>
</svg>
